PathFileType	4	(X/Y/Z)	/Users/visionmauri/4_1_1_f_Sports2D/4_1_1_f_Sports2D_px_person00.trc
DataRate	CameraRate	NumFrames	NumMarkers	Units	OrigDataRate	OrigDataStartFrame	OrigNumFrames
30.0	30.0	13	22	m	30.0	133	355
Frame#	Time	Hip			RHip			RKnee			RAnkle			RBigToe			RSmallToe			RHeel			LHip			LKnee			LAnkle			LBigToe			LSmallToe			LHeel			Neck			Head			Nose			RShoulder			RElbow			RWrist			LShoulder			LElbow			LWrist			
		X1	Y1	Z1	X2	Y2	Z2	X3	Y3	Z3	X4	Y4	Z4	X5	Y5	Z5	X6	Y6	Z6	X7	Y7	Z7	X8	Y8	Z8	X9	Y9	Z9	X10	Y10	Z10	X11	Y11	Z11	X12	Y12	Z12	X13	Y13	Z13	X14	Y14	Z14	X15	Y15	Z15	X16	Y16	Z16	X17	Y17	Z17	X18	Y18	Z18	X19	Y19	Z19	X20	Y20	Z20	X21	Y21	Z21	X22	Y22	Z22
133	4.445856873822976	550.3455157438832	847.910779270413	0.0	581.7901166778034	853.1901127488445	0.0	606.7520201504869	1039.0966476362285	0.0	618.5546755451966	1252.1867102242948	0.0	693.3035793830066	1280.813565348276	0.0	681.7586397326482	1293.9426126216167	0.0	608.6967261440116	1288.5783580583413	0.0	517.399821885384	846.2956440088667	0.0	545.0238420832892	1029.6746957718688	0.0	502.38008119229335	1220.624971005753	0.0	528.3348112793302	1274.672791411755	0.0	499.8130895543211	1267.6324344484246	0.0	497.1936033629975	1256.5841175449243	0.0	633.3587336365752	580.7956737990952	0.0	723.185124600434	488.92284274278603	0.0	705.3938878215856	571.1335559814266	0.0	652.1963218244648	617.3861538424928	0.0	674.1194849563532	762.6496520637519	0.0	740.2749106285208	848.875559586186	0.0	573.7441905587966	585.0296821215292	0.0	558.3404583724512	709.7939563634067	0.0	607.9308921193427	795.3214908810575	0.0
134	4.479284369114878	553.7672383178098	846.9936827757075	0.0	582.0072998116173	852.4777453593574	0.0	607.1662164507318	1036.7911621457654	0.0	619.2223848368642	1248.2662437979843	0.0	693.6136611800367	1280.7453423202314	0.0	681.9229992497633	1293.8642150745106	0.0	609.3109673093891	1282.8587378723244	0.0	522.333259728203	844.0190964228067	0.0	551.5709837949111	1025.5586146675394	0.0	504.5337270267873	1214.0240593641765	0.0	537.756112458341	1266.0721246146604	0.0	514.303050279185	1258.8253174373983	0.0	496.7195087840249	1247.9400937015605	0.0	635.6681953949552	580.9957876265266	0.0	727.4292582042124	490.3247378085898	0.0	710.2166618872473	572.5736888101853	0.0	653.1986203123147	616.595331843956	0.0	674.5983735296913	763.5103097815213	0.0	739.6449158962987	848.8163491628625	0.0	578.1162474661619	585.1908041588197	0.0	561.7103841785929	708.6771873478358	0.0	611.4474010759158	796.1857846237683	0.0
135	4.51271186440678	556.4345634167285	845.6727656000021	0.0	581.8831214291971	852.1489346932404	0.0	608.3210548740386	1035.82236941	0.0	619.6855166851273	1248.44286604512	0.0	693.1520013569977	1279.8672548383101	0.0	682.63477680046	1293.1359464860036	0.0	608.7263115771514	1283.0926444939585	0.0	526.8795823371873	842.3980302697483	0.0	557.8284059677327	1024.520149458604	0.0	508.1276182288898	1210.7804523010016	0.0	551.7851882606044	1257.3535933703843	0.0	532.3556748782522	1251.3612910321172	0.0	497.72046231553026	1242.5184527443216	0.0	637.2576785789621	582.2384388256618	0.0	730.8301026041602	491.418536025584	0.0	713.8113052299869	573.742545140374	0.0	652.628920298831	616.5189856150871	0.0	674.1715417806483	764.5564221923421	0.0	739.5612993448638	849.0245142952912	0.0	582.1918610106419	586.5314132455453	0.0	564.2993274796361	710.7547975108594	0.0	613.2427471526285	799.6683456041926	0.0
136	4.546139359698682	558.6003212050788	844.7183972779845	0.0	582.1765529606299	852.4819081944472	0.0	609.2719769074823	1035.7535122780646	0.0	619.7765455137867	1251.3936765457572	0.0	694.7412631892491	1279.04219873369	0.0	685.002065543366	1291.9386542745099	0.0	607.1474409829466	1287.649294037444	0.0	530.5083044970773	842.0940911282943	0.0	563.6648201754966	1025.7304366404355	0.0	513.4714368540224	1211.3915669994528	0.0	566.7267651193162	1252.7581778980236	0.0	550.2240953037463	1247.8330802354326	0.0	500.65655179697416	1241.6230846450403	0.0	638.8137062477942	584.1359797614682	0.0	733.0043018005146	492.50733809631043	0.0	715.4998195573347	574.7026520263331	0.0	651.0135654703195	616.92624038102	0.0	672.7689555771963	765.4865399364903	0.0	739.4934641923658	848.8203459881735	0.0	585.2777210709845	588.7241069309954	0.0	566.6249368690642	715.2969747769413	0.0	612.9661458264379	804.2345613220164	0.0
137	4.579566854990584	561.4774559692188	845.986277260169	0.0	583.0162884228348	853.4261847662473	0.0	608.9614706821556	1036.8231806645751	0.0	619.098558757141	1253.613228059304	0.0	699.3710758525714	1277.93069616596	0.0	688.805453150401	1290.4141678375954	0.0	605.2556247310052	1291.0755333792083	0.0	534.554946254936	843.3907819238068	0.0	568.5630502277708	1027.4389485536517	0.0	520.9251070601368	1213.5288361696196	0.0	580.5359648758757	1253.4815785373878	0.0	565.6777614131154	1247.907912122165	0.0	505.79794560949415	1243.5562239522053	0.0	640.440639387797	585.4173283536408	0.0	734.048822990156	493.1796759389456	0.0	715.8763071491156	575.811833580721	0.0	649.2741841528559	617.2589965004373	0.0	670.823393005491	765.7228086697774	0.0	738.7122174573899	848.1270671156626	0.0	587.0961321011891	591.3801464589559	0.0	570.8286705452476	720.7513131684299	0.0	613.8754048006765	808.8461112645841	0.0
138	4.612994350282486	565.3087444660907	849.751886398333	0.0	584.4324811793527	854.7118637058941	0.0	607.6912363850722	1039.7803239537411	0.0	617.4951834529419	1254.5142543032996	0.0	701.9140894443116	1276.4761850681946	0.0	690.5796214114617	1288.9801049445246	0.0	603.213709122195	1291.577915895571	0.0	540.2668489415194	846.6657046802914	0.0	572.5034725594569	1029.7668637144313	0.0	530.8405928169424	1214.892922817963	0.0	592.7069804507545	1256.4503549142262	0.0	575.2033971867028	1249.1572795106144	0.0	514.8065216484043	1245.9792687838485	0.0	641.2296171495109	585.6166926456316	0.0	734.415567326418	493.5761899735039	0.0	715.7188330350551	577.2520242278486	0.0	647.6780308804961	617.7853079374862	0.0	668.8045146157535	765.1230387501951	0.0	737.5302332761822	847.3882399713525	0.0	587.4777601476542	593.8248008217425	0.0	576.3656506747859	725.9657314996447	0.0	619.0038808806725	813.8808053291278	0.0
139	4.646421845574388	568.5536577206872	853.4979671308271	0.0	586.115928541053	855.5870930037989	0.0	606.6129698102962	1042.6341261047846	0.0	614.6919186678813	1254.8169529620698	0.0	697.1528135313209	1275.5336834554198	0.0	686.6660585469967	1287.93556323705	0.0	600.2864290394183	1290.869578413829	0.0	545.9966995045072	850.384082015647	0.0	575.8280150448279	1032.83654737866	0.0	543.5167593336657	1215.2873941988641	0.0	602.400470889765	1258.329787670379	0.0	577.9317184672849	1249.683634231927	0.0	529.4829125525981	1247.9965042168024	0.0	640.3855453980924	585.2725352549746	0.0	734.7873421242591	494.7726481909332	0.0	714.6142115405099	579.0825769911202	0.0	645.5387238344629	618.7372058130346	0.0	666.7572513527984	763.7305552709746	0.0	736.6868803953583	847.1806990102741	0.0	586.6946948630883	594.9206430846644	0.0	579.2932369378449	729.2967024709509	0.0	626.5297964673236	819.1938798902479	0.0
140	4.679849340866291	570.56153500224	855.121595941634	0.0	587.4691703185642	855.3033415017569	0.0	606.4981619761822	1041.3636548985935	0.0	610.6263666662867	1255.0405736365963	0.0	688.4094433812056	1275.6722305398837	0.0	678.9923796498139	1287.8551625347145	0.0	595.616367810415	1290.6097587814345	0.0	549.4415679597764	852.1596322742778	0.0	579.0305405117265	1034.766318560599	0.0	557.532723124521	1216.1078610603493	0.0	610.542418376797	1258.8034390585628	0.0	583.8953040199897	1249.233064967705	0.0	546.5653624628548	1249.8294244918145	0.0	638.1648057203366	585.1426499642868	0.0	734.8716386346388	497.3974559438322	0.0	711.6685535997531	580.9153979254403	0.0	641.6077458048538	619.6903659704161	0.0	664.5665606867024	761.4647372760609	0.0	736.1273493962207	847.6992409995053	0.0	585.6748108009506	594.8440446298196	0.0	577.6543482811287	730.3655418496564	0.0	631.708439838616	824.0391999781016	0.0
141	4.713276836158192	572.6229875869725	855.3697147081102	0.0	587.9670432956107	854.5861667299885	0.0	606.9248399232747	1036.0904415490688	0.0	606.9263953526478	1254.8700689302925	0.0	683.7752354263785	1276.8438314181133	0.0	673.8776502809754	1289.3567318015591	0.0	590.122410374435	1290.510822503305	0.0	551.7013092650269	852.1775302222784	0.0	582.8487481617785	1034.4546233185847	0.0	568.4049044245095	1217.9410570538832	0.0	620.175657364557	1259.1088849529206	0.0	603.5246645436141	1248.5239468256648	0.0	557.8429487729105	1251.0717964607143	0.0	635.0348804683271	586.0538271523487	0.0	733.0857759959839	500.44464766584264	0.0	707.3597482076199	581.6244888667532	0.0	635.0238976830599	619.7484190423228	0.0	662.2029831734512	758.2131176524524	0.0	735.5977196097306	848.0387823586867	0.0	584.9963910554877	595.78993272461	0.0	573.9163302787155	731.5174219940697	0.0	630.6846192739637	828.4255716153056	0.0
142	4.746704331450094	575.1372214098367	855.0449326150996	0.0	587.2859529903836	854.0760463491451	0.0	607.0251389179002	1031.6448294958984	0.0	605.4358277853695	1252.3403976426798	0.0	684.6173818956136	1278.3986654755809	0.0	673.4200315769752	1291.154172858925	0.0	586.8657501650894	1289.1590319882696	0.0	555.9957075303843	851.8211826687344	0.0	587.3006321836232	1033.1343352563445	0.0	572.2478807160481	1219.441503068245	0.0	630.3621144076245	1259.639089505081	0.0	629.0681718236091	1248.1238355344658	0.0	559.4770291575147	1251.1738080958778	0.0	630.9963312079838	588.127031327947	0.0	728.708389630133	502.0357045110274	0.0	703.2832170664261	580.8760984559938	0.0	626.7367810137598	618.1059218790699	0.0	659.6896224083273	754.2364637514834	0.0	735.7143178103353	846.9859514443565	0.0	584.7864458590848	599.0406365851849	0.0	572.2538768654209	734.517404629028	0.0	622.4600802659476	832.5577693713342	0.0
143	4.7801318267419965	577.1452830871608	853.7503139267914	0.0	584.936169803902	853.0390857350721	0.0	606.7872034885214	1030.3071735801786	0.0	605.8629417242918	1247.1095498702355	0.0	685.8944577061503	1279.3500391903847	0.0	674.3870697352837	1291.0736538710946	0.0	587.7546929996715	1286.4864713446552	0.0	564.6062425815535	851.3036695402044	0.0	591.1977067258662	1032.11335297241	0.0	570.3808669605148	1219.3736152425217	0.0	637.1687904347187	1259.857927955855	0.0	644.8043216414223	1248.0467490983044	0.0	556.1605556467018	1250.9375394584322	0.0	626.5537862265118	590.3276332989674	0.0	723.1418937459674	501.52928703793134	0.0	700.3294667838873	579.9870576641773	0.0	618.5290790350073	614.7621499370481	0.0	656.6958339515874	750.3059117762131	0.0	736.5533967172146	844.8257086201902	0.0	587.3593872145924	603.4134228073647	0.0	579.4545583429838	738.2697215069535	0.0	617.8368345855922	835.9394833713166	0.0
144	4.813559322033899	579.0069384103055	852.1537910677955	0.0	580.475985731497	851.294414760989	0.0	606.5246307143935	1029.2848415873736	0.0	606.8064247337697	1242.33591756943	0.0	686.1265311372844	1279.3460873885135	0.0	675.0196773235116	1289.2277100024157	0.0	590.7492561105117	1283.7328934069906	0.0	577.8826179468932	850.6565199767942	0.0	593.5058022129181	1031.531799494373	0.0	567.325748284874	1218.2978769991742	0.0	640.8986079537755	1259.4327027489885	0.0	648.4292451295798	1248.0256300625597	0.0	553.3503680813384	1250.8208155338154	0.0	623.4262193030893	591.7634870042118	0.0	718.4589812737977	499.850012297914	0.0	698.4134423792926	579.5888076664185	0.0	610.564769267164	610.5056128670229	0.0	651.9214882762561	747.1685371055343	0.0	736.3306382727869	843.06665243427	0.0	597.1650215908987	608.0698860516508	0.0	602.6090506211442	741.3511344792463	0.0	639.3237646246268	837.8516725879118	0.0
145	4.846986817325801	581.3078749043833	851.254323438567	0.0	574.6649045557383	849.5736399354882	0.0	606.0918430569455	1025.8424855889687	0.0	606.4059327866518	1240.5612525421757	0.0	688.146483602183	1278.8444769210548	0.0	675.6169403733231	1287.4630375812822	0.0	591.4562163183999	1281.9762027739976	0.0	592.0295244302806	850.0749841128496	0.0	594.263878082805	1031.1801902642242	0.0	565.9653412448233	1217.6514952958303	0.0	644.0348350287059	1258.4320545102598	0.0	647.5533274725501	1247.715722369984	0.0	551.8771386123615	1250.0056320281442	0.0	622.7668502814545	592.5838811446511	0.0	715.3956277835076	497.9847283297512	0.0	697.3542394250948	578.9755039656499	0.0	602.7953097410638	606.6024538674155	0.0	644.372016398779	745.034064045822	0.0	733.1793439953489	841.9922646985393	0.0	613.5886170878034	613.3265681716866	0.0	635.7954436850914	743.6908490365321	0.0	687.2958542374062	838.8225847458839	0.0
